<svg version="1.1" xmlns="http://www.w3.org/2000/svg" xmlns:xlink="http://www.w3.org/1999/xlink" width="480" height="480" viewBox="0,0,480,480"><defs><radialGradient cx="240" cy="180" r="240" gradientUnits="userSpaceOnUse" id="color-1"><stop offset="0" stop-color="#ffffff" stop-opacity="0.56863"/><stop offset="1" stop-color="#ffffff" stop-opacity="0"/></radialGradient></defs><g transform="translate(0,60)"><g data-paper-data="{&quot;isPaintingLayer&quot;:true}" fill-rule="nonzero" stroke-linejoin="miter" stroke-miterlimit="10" stroke-dasharray="" stroke-dashoffset="0" style="mix-blend-mode: normal"><path d="M0,180c0,-132.54834 107.45166,-240 240,-240c132.54834,0 240,107.45166 240,240c0,132.54834 -107.45166,240 -240,240c-132.54834,0 -240,-107.45166 -240,-240z" fill="url(#color-1)" stroke="none" stroke-width="0" stroke-linecap="butt"/><path d="M189.78092,180.00001c0,-27.73524 22.48386,-50.21909 50.21909,-50.21909c27.73524,0 50.21909,22.48386 50.21909,50.21909c0,27.73524 -22.48386,50.21909 -50.21909,50.21909c-27.73524,0 -50.21909,-22.48386 -50.21909,-50.21909z" fill="#fff9d9" stroke="#ffffff" stroke-width="0" stroke-linecap="butt"/><path d="M179.6047,180.00001h-21.66178" fill="#ffffff" stroke="#ffffff" stroke-width="10" stroke-linecap="round"/><path d="M322.05708,180.00001h-21.66177" data-paper-data="{&quot;index&quot;:null}" fill="#ffffff" stroke="#ffffff" stroke-width="10" stroke-linecap="round"/><path d="M197.29408,222.70594l-15.31719,15.31719" fill="#ffffff" stroke="#ffffff" stroke-width="10" stroke-linecap="round"/><path d="M282.70593,137.29406l15.31719,-15.31719" data-paper-data="{&quot;index&quot;:null}" fill="#ffffff" stroke="#ffffff" stroke-width="10" stroke-linecap="round"/><path d="M240.00001,262.0571v-21.66179" fill="#ffffff" stroke="#ffffff" stroke-width="10" stroke-linecap="round"/><path d="M240.00001,97.94292v21.66179" data-paper-data="{&quot;index&quot;:null}" fill="#ffffff" stroke="#ffffff" stroke-width="10" stroke-linecap="round"/><path d="M298.02313,238.02313l-15.31719,-15.31719" fill="#ffffff" stroke="#ffffff" stroke-width="10" stroke-linecap="round"/><path d="M181.97689,121.97689l15.31719,15.31719" data-paper-data="{&quot;index&quot;:null}" fill="#ffffff" stroke="#ffffff" stroke-width="10" stroke-linecap="round"/></g></g></svg>