<svg version="1.1" xmlns="http://www.w3.org/2000/svg" xmlns:xlink="http://www.w3.org/1999/xlink" width="230.13692" height="230.13692" viewBox="0,0,230.13692,230.13692"><defs><radialGradient cx="240" cy="180" r="115.06846" gradientUnits="userSpaceOnUse" id="color-1"><stop offset="0" stop-color="#dadada"/><stop offset="1" stop-color="#dadada" stop-opacity="0"/></radialGradient></defs><g transform="translate(-124.93154,-64.93154)"><g data-paper-data="{&quot;isPaintingLayer&quot;:true}" fill-rule="nonzero" stroke="none" stroke-linecap="butt" stroke-linejoin="miter" stroke-miterlimit="10" stroke-dasharray="" stroke-dashoffset="0" style="mix-blend-mode: normal"><path d="M124.93154,180c0,-63.55055 51.51791,-115.06846 115.06846,-115.06846c63.55056,0 115.06846,51.51791 115.06846,115.06846c0,63.55056 -51.5179,115.06846 -115.06846,115.06846c-63.55055,0 -115.06846,-51.51791 -115.06846,-115.06846z" fill="url(#color-1)" stroke-width="0"/><path d="M198.51851,191.33838c0,-11.35252 9.20304,-20.55556 20.55556,-20.55556c11.35252,0 20.55556,9.20304 20.55556,20.55556c0,11.35252 -9.20304,20.55556 -20.55556,20.55556c-11.35252,0 -20.55556,-9.20304 -20.55556,-20.55556z" fill="#ffffff" stroke-width="0"/><path d="M240.37036,191.33838c0,-11.35252 9.20304,-20.55555 20.55556,-20.55555c11.35252,0 20.55556,9.20304 20.55556,20.55555c0,11.35252 -9.20303,20.55555 -20.55556,20.55555c-11.35252,0 -20.55556,-9.20303 -20.55556,-20.55555z" fill="#ffffff" stroke-width="0"/><path d="M219.07406,211.89394v-41.11111h41.11111v41.11111z" fill="#ffffff" stroke-width="0"/><path d="M214.71818,168.66161c0,-11.35252 9.20304,-20.55555 20.55556,-20.55555c11.35252,0 20.55556,9.20304 20.55556,20.55555c0,11.35252 -9.20303,20.55555 -20.55556,20.55555c-11.35252,0 -20.55556,-9.20303 -20.55556,-20.55555z" fill="#ffffff" stroke-width="0"/><path d="M214.71818,209.62121v-41.11111h41.11112v41.11111z" fill="#ffffff" stroke-width="0"/><text transform="translate(164.87831,119.06379) scale(0.5,0.5)" font-size="40" xml:space="preserve" fill="#ffffff" fill-rule="nonzero" stroke="none" stroke-width="1" stroke-linecap="butt" stroke-linejoin="miter" stroke-miterlimit="10" stroke-dasharray="" stroke-dashoffset="0" font-family="&quot;Sitka Small&quot;, Sans Serif" font-weight="normal" text-anchor="start" style="mix-blend-mode: normal"><tspan x="0" dy="0">Esta Nublado.</tspan></text></g></g></svg>