<svg version="1.1" xmlns="http://www.w3.org/2000/svg" xmlns:xlink="http://www.w3.org/1999/xlink" width="234.89844" height="230.13692" viewBox="0,0,234.89844,230.13692"><defs><radialGradient cx="240" cy="180" r="115.06846" gradientUnits="userSpaceOnUse" id="color-1"><stop offset="0" stop-color="#ff7300"/><stop offset="1" stop-color="#ff7300" stop-opacity="0"/></radialGradient></defs><g transform="translate(-122.80457,-64.93154)"><g data-paper-data="{&quot;isPaintingLayer&quot;:true}" fill-rule="nonzero" stroke-linejoin="miter" stroke-miterlimit="10" stroke-dasharray="" stroke-dashoffset="0" style="mix-blend-mode: normal"><path d="M124.93154,180c0,-63.55055 51.51791,-115.06846 115.06846,-115.06846c63.55056,0 115.06846,51.51791 115.06846,115.06846c0,63.55056 -51.5179,115.06846 -115.06846,115.06846c-63.55055,0 -115.06846,-51.51791 -115.06846,-115.06846z" fill="url(#color-1)" stroke="none" stroke-width="0" stroke-linecap="butt"/><path d="M198.51853,191.33839c0,-11.35252 9.20304,-20.55556 20.55556,-20.55556c11.35252,0 20.55556,9.20304 20.55556,20.55556c0,11.35252 -9.20304,20.55556 -20.55556,20.55556c-11.35252,0 -20.55556,-9.20304 -20.55556,-20.55556z" fill="#ffffff" stroke="none" stroke-width="0" stroke-linecap="butt"/><path d="M240.37038,191.33839c0,-11.35252 9.20304,-20.55555 20.55556,-20.55555c11.35252,0 20.55556,9.20304 20.55556,20.55555c0,11.35252 -9.20303,20.55555 -20.55556,20.55555c-11.35252,0 -20.55556,-9.20303 -20.55556,-20.55555z" fill="#ffffff" stroke="none" stroke-width="0" stroke-linecap="butt"/><path d="M219.07408,211.89394v-41.11111h41.11111v41.11111z" fill="#ffffff" stroke="none" stroke-width="0" stroke-linecap="butt"/><path d="M214.7182,168.66162c0,-11.35252 9.20304,-20.55555 20.55556,-20.55555c11.35252,0 20.55556,9.20304 20.55556,20.55555c0,11.35252 -9.20303,20.55555 -20.55556,20.55555c-11.35252,0 -20.55556,-9.20303 -20.55556,-20.55555z" fill="#ffffff" stroke="none" stroke-width="0" stroke-linecap="butt"/><path d="M214.7182,209.77272v-41.11111h41.11112v41.11111z" fill="#ffffff" stroke="none" stroke-width="0" stroke-linecap="butt"/><path d="M232.33099,216.86004c2.10693,-3.4188 8.46759,-13.73986 9.65909,-15.67324c0.37593,-0.61 1.12105,-1.1551 1.5561,-1.1551c1.12783,0 6.35026,0 8.71277,0c0.74058,0 0.70455,0.72896 0.3523,1.42131c-0.73885,1.45223 -3.51675,6.91224 -4.73922,9.31502c-0.35875,0.70512 -0.17595,1.2575 0.27192,1.37895c1.32393,0.35903 7.98342,2.16499 10.48932,2.84456c0.5947,0.16128 0.59475,0.71002 0.1417,1.27633c-1.88893,2.36116 -14.81367,18.51708 -19.32123,24.15153c-0.96715,1.20894 -1.20233,0.77378 -0.86601,-0.35849c0.78759,-2.65156 4.01945,-13.53216 5.16702,-17.39562c0.25456,-0.85703 -0.35531,-1.57192 -1.08027,-1.76524c-1.5489,-0.41304 -7.45401,-1.84944 -9.92474,-2.5083c-0.67783,-0.18075 -0.84501,-0.84003 -0.41874,-1.53172z" fill="#ff9400" stroke="#ff6f00" stroke-width="2" stroke-linecap="round"/><text transform="translate(123.05457,123.47686) scale(0.5,0.5)" font-size="40" xml:space="preserve" fill="#ffffff" fill-rule="nonzero" stroke="none" stroke-width="1" stroke-linecap="butt" stroke-linejoin="miter" stroke-miterlimit="10" stroke-dasharray="" stroke-dashoffset="0" font-family="&quot;Sitka Small&quot;, Sans Serif" font-weight="normal" text-anchor="start" style="mix-blend-mode: normal"><tspan x="0" dy="0">Estaran cayendo rayos.</tspan></text></g></g></svg>