<svg version="1.1" xmlns="http://www.w3.org/2000/svg" xmlns:xlink="http://www.w3.org/1999/xlink" width="230.13692" height="230.13692" viewBox="0,0,230.13692,230.13692"><defs><radialGradient cx="240" cy="180" r="115.06846" gradientUnits="userSpaceOnUse" id="color-1"><stop offset="0" stop-color="#0abfff"/><stop offset="1" stop-color="#0abfff" stop-opacity="0"/></radialGradient></defs><g transform="translate(-124.93154,-64.93154)"><g data-paper-data="{&quot;isPaintingLayer&quot;:true}" fill-rule="nonzero" stroke-linejoin="miter" stroke-miterlimit="10" stroke-dasharray="" stroke-dashoffset="0" style="mix-blend-mode: normal"><path d="M124.93154,180c0,-63.55055 51.5179,-115.06846 115.06846,-115.06846c63.55055,0 115.06846,51.5179 115.06846,115.06846c0,63.55055 -51.5179,115.06846 -115.06846,115.06846c-63.55055,0 -115.06846,-51.5179 -115.06846,-115.06846z" fill="url(#color-1)" stroke="none" stroke-width="0" stroke-linecap="butt"/><path d="M213.92098,180.00001c0,-14.40305 11.67598,-26.07902 26.07902,-26.07902c14.40305,0 26.07902,11.67598 26.07902,26.07902c0,14.40305 -11.67598,26.07902 -26.07902,26.07902c-14.40305,0 -26.07902,-11.67598 -26.07902,-26.07902z" fill="#fff2a6" stroke="none" stroke-width="0" stroke-linecap="butt"/><path d="M197.38735,180.00001h11.24907" fill="none" stroke="#fff2a6" stroke-width="7.5" stroke-linecap="round"/><path d="M271.36359,180.00001h11.24906" data-paper-data="{&quot;index&quot;:null}" fill="none" stroke="#fff2a6" stroke-width="7.5" stroke-linecap="round"/><path d="M209.86831,210.13171l7.95429,-7.95429" fill="none" stroke="#fff2a6" stroke-width="7.5" stroke-linecap="round"/><path d="M270.13169,149.86832l-7.95429,7.95429" data-paper-data="{&quot;index&quot;:null}" fill="none" stroke="#fff2a6" stroke-width="7.5" stroke-linecap="round"/><path d="M240,222.61266v-11.24907" fill="none" stroke="#fff2a6" stroke-width="7.5" stroke-linecap="round"/><path d="M240,137.38735v11.24907" data-paper-data="{&quot;index&quot;:null}" fill="none" stroke="#fff2a6" stroke-width="7.5" stroke-linecap="round"/><path d="M270.13169,210.13169l-7.95429,-7.95429" fill="none" stroke="#fff2a6" stroke-width="7.5" stroke-linecap="round"/><path d="M217.8226,157.82261l-7.95429,-7.95429" data-paper-data="{&quot;index&quot;:null}" fill="none" stroke="#fff2a6" stroke-width="7.5" stroke-linecap="round"/><text transform="translate(165.09093,119.26428) scale(0.5,0.5)" font-size="40" xml:space="preserve" fill="#ffffff" fill-rule="nonzero" stroke="none" stroke-width="1" stroke-linecap="butt" stroke-linejoin="miter" stroke-miterlimit="10" stroke-dasharray="" stroke-dashoffset="0" font-family="&quot;Sitka Small&quot;, Sans Serif" font-weight="normal" text-anchor="start" style="mix-blend-mode: normal"><tspan x="0" dy="0">Estara Soleado</tspan></text></g></g></svg>