<svg version="1.1" xmlns="http://www.w3.org/2000/svg" xmlns:xlink="http://www.w3.org/1999/xlink" width="230.13692" height="230.13692" viewBox="0,0,230.13692,230.13692"><defs><radialGradient cx="240" cy="180" r="115.06846" gradientUnits="userSpaceOnUse" id="color-1"><stop offset="0" stop-color="#617db9"/><stop offset="1" stop-color="#617db9" stop-opacity="0"/></radialGradient></defs><g transform="translate(-124.93154,-64.93154)"><g data-paper-data="{&quot;isPaintingLayer&quot;:true}" fill-rule="nonzero" stroke-linejoin="miter" stroke-miterlimit="10" stroke-dasharray="" stroke-dashoffset="0" style="mix-blend-mode: normal"><path d="M124.93154,180c0,-63.55055 51.51791,-115.06846 115.06846,-115.06846c63.55056,0 115.06846,51.51791 115.06846,115.06846c0,63.55056 -51.5179,115.06846 -115.06846,115.06846c-63.55055,0 -115.06846,-51.51791 -115.06846,-115.06846z" fill="url(#color-1)" stroke="none" stroke-width="0" stroke-linecap="butt"/><path d="M198.51852,191.33839c0,-11.35252 9.20304,-20.55556 20.55556,-20.55556c11.35252,0 20.55556,9.20304 20.55556,20.55556c0,11.35252 -9.20304,20.55556 -20.55556,20.55556c-11.35252,0 -20.55556,-9.20304 -20.55556,-20.55556z" fill="#ffffff" stroke="none" stroke-width="0" stroke-linecap="butt"/><path d="M240.37037,191.33839c0,-11.35252 9.20304,-20.55555 20.55556,-20.55555c11.35252,0 20.55556,9.20304 20.55556,20.55555c0,11.35252 -9.20303,20.55555 -20.55556,20.55555c-11.35252,0 -20.55556,-9.20303 -20.55556,-20.55555z" fill="#ffffff" stroke="none" stroke-width="0" stroke-linecap="butt"/><path d="M219.07407,211.89394v-41.11111h41.11111v41.11111z" fill="#ffffff" stroke="none" stroke-width="0" stroke-linecap="butt"/><path d="M214.71819,168.66162c0,-11.35252 9.20304,-20.55555 20.55556,-20.55555c11.35252,0 20.55556,9.20304 20.55556,20.55555c0,11.35252 -9.20303,20.55555 -20.55556,20.55555c-11.35252,0 -20.55556,-9.20303 -20.55556,-20.55555z" fill="#ffffff" stroke="none" stroke-width="0" stroke-linecap="butt"/><path d="M214.71819,209.62122v-41.11111h41.11112v41.11111z" fill="#ffffff" stroke="none" stroke-width="0" stroke-linecap="butt"/><path d="M200.12999,253.4217l16.8,-33.4" fill="none" stroke="#57feff" stroke-width="7.5" stroke-linecap="round"/><path d="M217.12999,251.42171l16.8,-33.4" fill="none" stroke="#57feff" stroke-width="7.5" stroke-linecap="round"/><path d="M248.02962,230.2217l-16.8,33.4" fill="none" stroke="#57feff" stroke-width="7.5" stroke-linecap="round"/><path d="M252.52593,251.42171l16.8,-33.4" fill="none" stroke="#57feff" stroke-width="7.5" stroke-linecap="round"/><text transform="translate(154.42511,123.03555) scale(0.5,0.5)" font-size="40" xml:space="preserve" fill="#ffffff" fill-rule="nonzero" stroke="none" stroke-width="1" stroke-linecap="butt" stroke-linejoin="miter" stroke-miterlimit="10" stroke-dasharray="" stroke-dashoffset="0" font-family="&quot;Sitka Small&quot;, Sans Serif" font-weight="normal" text-anchor="start" style="mix-blend-mode: normal"><tspan x="0" dy="0">Estara Lloviendo</tspan></text></g></g></svg>