<svg version="1.1" xmlns="http://www.w3.org/2000/svg" xmlns:xlink="http://www.w3.org/1999/xlink" width="69.7212" height="59.8582" viewBox="0,0,69.7212,59.8582"><g transform="translate(-205.1394,-150.0709)"><g data-paper-data="{&quot;isPaintingLayer&quot;:true}" fill-rule="nonzero" stroke-linejoin="miter" stroke-miterlimit="10" stroke-dasharray="" stroke-dashoffset="0" style="mix-blend-mode: normal"><path d="M205.1394,209.9291v-59.8582h69.7212v59.8582z" fill-opacity="0.01176" fill="#ffffff" stroke="none" stroke-width="0" stroke-linecap="butt"/><path d="M237.87754,182.80792c0,-5.86943 4.75811,-10.62754 10.62754,-10.62754c5.86943,0 10.62754,4.75811 10.62754,10.62754c0,5.86943 -4.75811,10.62754 -10.62754,10.62754c-5.86943,0 -10.62754,-4.75811 -10.62754,-10.62754z" fill="none" stroke="#ffffff" stroke-width="3.5" stroke-linecap="butt"/><path d="M241.35321,193.03442l-3.67619,3.67619" fill="none" stroke="#ffffff" stroke-width="3.5" stroke-linecap="round"/><path d="M258.65174,196.71061l-3.67619,-3.67619" data-paper-data="{&quot;index&quot;:null}" fill="none" stroke="#ffffff" stroke-width="3.5" stroke-linecap="round"/><path d="M241.48329,173.51166l-0.74038,-0.74038" fill="none" stroke="#ffffff" stroke-width="3.5" stroke-linecap="round"/><path d="M254.81016,173.64231l1.0017,-1.00169" fill="none" stroke="#ffffff" stroke-width="3.5" stroke-linecap="round"/><path d="M237.91203,172.72772l3.39705,-2.87442" fill="none" stroke="#ffffff" stroke-width="3.5" stroke-linecap="round"/><path d="M258.51217,171.42117l-3.39704,-1.82918" fill="none" stroke="#ffffff" stroke-width="3.5" stroke-linecap="round"/><path d="M254.83491,184.37627c0,0 -4.78102,0 -5.8357,0c-0.38512,0 -0.86747,-0.26884 -0.86747,-0.55203c0,-0.94529 0,-6.15114 0,-6.15114" fill="none" stroke="#ffffff" stroke-width="3.5" stroke-linecap="round"/><path d="M223.59054,166.50034c0,0 4.19302,0 5.94733,0c1.39222,0 3.74561,2.25975 3.74561,3.71322c0,2.06707 0,7.51019 0,7.51019" data-paper-data="{&quot;index&quot;:null}" fill="none" stroke="#ffffff" stroke-width="3" stroke-linecap="round"/><path d="M224.26443,170.46792c0,0 -2.54775,-2.54775 -3.19046,-3.19046c-0.2783,-0.2783 -0.27261,-0.92381 0,-1.19642c0.58891,-0.58891 2.79165,-2.79165 2.79165,-2.79165" data-paper-data="{&quot;index&quot;:null}" fill="none" stroke="#ffffff" stroke-width="3" stroke-linecap="round"/></g></g></svg>