<svg version="1.1" xmlns="http://www.w3.org/2000/svg" xmlns:xlink="http://www.w3.org/1999/xlink" width="69.7212" height="59.8582" viewBox="0,0,69.7212,59.8582"><g transform="translate(-205.1394,-150.0709)"><g data-paper-data="{&quot;isPaintingLayer&quot;:true}" fill-rule="nonzero" stroke-linejoin="miter" stroke-miterlimit="10" stroke-dasharray="" stroke-dashoffset="0" style="mix-blend-mode: normal"><path d="M205.1394,209.9291v-59.8582h69.7212v59.8582z" fill-opacity="0.01176" fill="#ffffff" stroke="none" stroke-width="0" stroke-linecap="butt"/><path d="M221.48093,183.09361c0,-5.86943 4.75811,-10.62754 10.62754,-10.62754c5.86943,0 10.62754,4.75811 10.62754,10.62754c0,5.86943 -4.75811,10.62754 -10.62754,10.62754c-5.86943,0 -10.62754,-4.75811 -10.62754,-10.62754z" fill="none" stroke="#ffffff" stroke-width="3.5" stroke-linecap="butt"/><path d="M224.9566,193.32011l-3.67619,3.67619" fill="none" stroke="#ffffff" stroke-width="3.5" stroke-linecap="round"/><path d="M242.25513,196.9963l-3.67619,-3.67619" data-paper-data="{&quot;index&quot;:null}" fill="none" stroke="#ffffff" stroke-width="3.5" stroke-linecap="round"/><path d="M225.08668,173.79735l-0.74038,-0.74038" fill="none" stroke="#ffffff" stroke-width="3.5" stroke-linecap="round"/><path d="M238.41355,173.928l1.00169,-1.00169" fill="none" stroke="#ffffff" stroke-width="3.5" stroke-linecap="round"/><path d="M224.91247,170.13899l-3.39705,2.87442" fill="none" stroke="#ffffff" stroke-width="3.5" stroke-linecap="round"/><path d="M242.11556,171.70686l-3.39704,-1.82918" fill="none" stroke="#ffffff" stroke-width="3.5" stroke-linecap="round"/><path d="M238.4383,184.66196c0,0 -4.78102,0 -5.8357,0c-0.38512,0 -0.86747,-0.26884 -0.86747,-0.55202c0,-0.94529 0,-6.15115 0,-6.15115" fill="none" stroke="#ffffff" stroke-width="3.5" stroke-linecap="round"/><path d="M246.30348,177.43806c0,0 0,-5.44311 0,-7.51018c0,-1.45347 2.3534,-3.71323 3.74562,-3.71323c1.75431,0 5.94733,0 5.94733,0" fill="none" stroke="#ffffff" stroke-width="3" stroke-linecap="round"/><path d="M255.72135,163.00371c0,0 2.20274,2.20274 2.79165,2.79165c0.27261,0.27261 0.2783,0.91812 0,1.19642c-0.6427,0.6427 -3.19045,3.19045 -3.19045,3.19045" fill="none" stroke="#ffffff" stroke-width="3" stroke-linecap="round"/></g></g></svg>