<svg version="1.1" xmlns="http://www.w3.org/2000/svg" xmlns:xlink="http://www.w3.org/1999/xlink" width="268.47656" height="230.13692" viewBox="0,0,268.47656,230.13692"><defs><radialGradient cx="240" cy="180" r="115.06846" gradientUnits="userSpaceOnUse" id="color-1"><stop offset="0" stop-color="#b1bbde"/><stop offset="1" stop-color="#b1bbde" stop-opacity="0"/></radialGradient></defs><g transform="translate(-106.01367,-64.93154)"><g data-paper-data="{&quot;isPaintingLayer&quot;:true}" fill-rule="nonzero" stroke-linejoin="miter" stroke-miterlimit="10" stroke-dasharray="" stroke-dashoffset="0" style="mix-blend-mode: normal"><path d="M124.93154,180c0,-63.55055 51.51791,-115.06846 115.06846,-115.06846c63.55056,0 115.06846,51.51791 115.06846,115.06846c0,63.55056 -51.5179,115.06846 -115.06846,115.06846c-63.55055,0 -115.06846,-51.51791 -115.06846,-115.06846z" fill="url(#color-1)" stroke="none" stroke-width="0" stroke-linecap="butt"/><path d="M222.52207,179.1927c0,-14.40305 11.67598,-26.07902 26.07902,-26.07902c14.40305,0 26.07902,11.67598 26.07902,26.07902c0,14.40305 -11.67598,26.07902 -26.07902,26.07902c-14.40305,0 -26.07902,-11.67598 -26.07902,-26.07902z" fill="#fff2a6" stroke="none" stroke-width="0" stroke-linecap="butt"/><path d="M205.98844,179.1927h11.24907" fill="none" stroke="#fff2a6" stroke-width="7.5" stroke-linecap="round"/><path d="M291.21374,179.1927h-11.24906" data-paper-data="{&quot;index&quot;:null}" fill="none" stroke="#fff2a6" stroke-width="7.5" stroke-linecap="round"/><path d="M218.4694,209.32439l7.95429,-7.95429" fill="none" stroke="#fff2a6" stroke-width="7.5" stroke-linecap="round"/><path d="M270.77849,157.01529l7.95429,-7.95429" data-paper-data="{&quot;index&quot;:null}" fill="none" stroke="#fff2a6" stroke-width="7.5" stroke-linecap="round"/><path d="M248.60109,210.55628v11.24907" fill="none" stroke="#fff2a6" stroke-width="7.5" stroke-linecap="round"/><path d="M248.60109,136.58004v11.24907" data-paper-data="{&quot;index&quot;:null}" fill="none" stroke="#fff2a6" stroke-width="7.5" stroke-linecap="round"/><path d="M278.73278,209.32439l-7.95429,-7.95429" fill="none" stroke="#fff2a6" stroke-width="7.5" stroke-linecap="round"/><path d="M226.42369,157.01529l-7.95429,-7.95429" data-paper-data="{&quot;index&quot;:null}" fill="none" stroke="#fff2a6" stroke-width="7.5" stroke-linecap="round"/><path d="M188.78626,202.8644c0,-11.35252 9.20304,-20.55556 20.55556,-20.55556c11.35252,0 20.55556,9.20304 20.55556,20.55556c0,11.35252 -9.20304,20.55556 -20.55556,20.55556c-11.35252,0 -20.55556,-9.20304 -20.55556,-20.55556z" fill="#ffffff" stroke="none" stroke-width="0" stroke-linecap="butt"/><path d="M230.63811,202.8644c0,-11.35252 9.20304,-20.55555 20.55556,-20.55555c11.35252,0 20.55556,9.20304 20.55556,20.55555c0,11.35252 -9.20303,20.55555 -20.55556,20.55555c-11.35252,0 -20.55556,-9.20303 -20.55556,-20.55555z" fill="#ffffff" stroke="none" stroke-width="0" stroke-linecap="butt"/><path d="M209.34181,223.41997v-41.11111h41.11111v41.11111z" fill="#ffffff" stroke="none" stroke-width="0" stroke-linecap="butt"/><path d="M204.98593,180.18764c0,-11.35252 9.20304,-20.55555 20.55556,-20.55555c11.35252,0 20.55556,9.20304 20.55556,20.55555c0,11.35252 -9.20303,20.55555 -20.55556,20.55555c-11.35252,0 -20.55556,-9.20303 -20.55556,-20.55555z" fill="#ffffff" stroke="none" stroke-width="0" stroke-linecap="butt"/><path d="M204.98593,221.14724v-41.11111h41.11112v41.11111z" fill="#ffffff" stroke="none" stroke-width="0" stroke-linecap="butt"/><text transform="translate(106.26367,111.12028) scale(0.5,0.5)" font-size="40" xml:space="preserve" fill="#ffffff" fill-rule="nonzero" stroke="none" stroke-width="1" stroke-linecap="butt" stroke-linejoin="miter" stroke-miterlimit="10" stroke-dasharray="" stroke-dashoffset="0" font-family="&quot;Sitka Small&quot;, Sans Serif" font-weight="normal" text-anchor="start" style="mix-blend-mode: normal"><tspan x="0" dy="0">Esta Parcialmente Soleado</tspan></text></g></g></svg>